# xmcd CD database file
#
# Track frame offsets:
#	187
#	25612
#	50507
#
# Disc length: 902 seconds
#
# Revision: 1
# Processed by: cddbd v1.5PL3 Copyright (c) Steve Scherf et al.
# Submitted via: CDex 1.40Release
#
DISCID=1a038403
DTITLE=BRAND NEW MONKEYS - WILD CHILD
DYEAR=1996
DGENRE=ヒップ ホップ (一般)
TTITLE0=WILD CHILD(ORIGINAL MIX)
TTITLE1=WILD CHILD(SADAO OSADA MIX(COSA NOSTRA)
TTITLE2=WILD CHILD(RADIO EDIT MIX)
EXTD=YEAR: 1996
EXTT0=
EXTT1=
EXTT2=
PLAYORDER=
